<svg width="800" height="800" viewBox="0 0 800 800" fill="none" xmlns="http://www.w3.org/2000/svg">
<path d="M681.538 100C543.077 100 436.923 207.692 436.923 346.154V676.923C436.923 689.231 447.692 700 460 700H721.539C733.846 700 744.615 689.231 744.615 676.923V415.385C744.615 403.077 733.846 392.308 721.539 392.308H529.231V346.154C529.231 269.231 604.615 192.308 681.538 192.308H721.539C733.846 192.308 744.615 181.538 744.615 169.231V123.077C744.615 110.769 733.846 100 721.539 100H681.538Z" fill="#21409B"/>
<path d="M300 100C161.538 100 55.3846 207.692 55.3846 346.154V676.923C55.3846 689.231 66.1539 700 78.4616 700H340C352.308 700 363.077 689.231 363.077 676.923V415.385C363.077 403.077 352.308 392.308 340 392.308H147.692V346.154C147.692 269.231 223.077 192.308 300 192.308H340C352.308 192.308 363.077 181.538 363.077 169.231V123.077C363.077 110.769 352.308 100 340 100H300Z" fill="#21409B"/>
</svg>
